<svg width="280" height="400" viewBox="0 0 280 400" fill="none" xmlns="http://www.w3.org/2000/svg">
<g clip-path="url(#clip0_3425_11821)">
<rect width="280" height="400" rx="20" fill="#FFBFBB"/>
<g clip-path="url(#clip1_3425_11821)">
<g opacity="0.8">
<mask id="path-2-outside-1_3425_11821" maskUnits="userSpaceOnUse" x="34.5117" y="106.401" width="205" height="215" fill="black">
<rect fill="white" x="34.5117" y="106.401" width="205" height="215"/>
<path fill-rule="evenodd" clip-rule="evenodd" d="M198.419 214.314C198.378 239.469 198.315 277.129 198.315 277.129C198.315 289.325 188.411 299.222 176.204 299.222C167.206 299.222 159.464 293.855 155.977 286.119C152.559 293.298 145.305 298.246 136.865 298.246C128.425 298.246 121.171 293.298 117.753 286.119C114.335 293.855 106.593 299.222 97.5251 299.222C85.3186 299.222 75.3442 289.255 75.3442 277.059C75.3442 277.059 75.313 239.535 75.2923 214.38C68.5917 213.101 56.5117 204.521 56.5117 193.219V192.801V192.592C56.5117 189.874 56.721 187.225 57.2092 184.716C58.953 174.611 64.1146 165.969 71.9267 160.811C72.097 160.714 72.2695 160.615 72.4437 160.514L72.4444 160.514C73.2687 160.039 74.1323 159.541 74.9958 159.139H75.0655H75.1353C76.3908 158.651 77.7858 158.372 79.2506 158.372C80.8239 158.372 82.326 158.674 83.7023 159.223C94.4522 140.273 114.368 128.401 136.865 128.401C159.331 128.448 179.223 140.303 189.983 159.212C191.352 158.67 192.845 158.372 194.409 158.372C195.873 158.372 197.268 158.651 198.524 159.139H198.594H198.663C199.527 159.541 200.39 160.039 201.215 160.514L201.218 160.516C201.391 160.616 201.563 160.715 201.732 160.811C209.614 165.829 214.706 174.541 216.52 184.577C217.008 187.156 217.217 189.804 217.217 192.522V192.731V193.149C217.217 204.461 205.117 213.046 198.419 214.314Z"/>
</mask>
<path fill-rule="evenodd" clip-rule="evenodd" d="M198.419 214.314C198.378 239.469 198.315 277.129 198.315 277.129C198.315 289.325 188.411 299.222 176.204 299.222C167.206 299.222 159.464 293.855 155.977 286.119C152.559 293.298 145.305 298.246 136.865 298.246C128.425 298.246 121.171 293.298 117.753 286.119C114.335 293.855 106.593 299.222 97.5251 299.222C85.3186 299.222 75.3442 289.255 75.3442 277.059C75.3442 277.059 75.313 239.535 75.2923 214.38C68.5917 213.101 56.5117 204.521 56.5117 193.219V192.801V192.592C56.5117 189.874 56.721 187.225 57.2092 184.716C58.953 174.611 64.1146 165.969 71.9267 160.811C72.097 160.714 72.2695 160.615 72.4437 160.514L72.4444 160.514C73.2687 160.039 74.1323 159.541 74.9958 159.139H75.0655H75.1353C76.3908 158.651 77.7858 158.372 79.2506 158.372C80.8239 158.372 82.326 158.674 83.7023 159.223C94.4522 140.273 114.368 128.401 136.865 128.401C159.331 128.448 179.223 140.303 189.983 159.212C191.352 158.67 192.845 158.372 194.409 158.372C195.873 158.372 197.268 158.651 198.524 159.139H198.594H198.663C199.527 159.541 200.39 160.039 201.215 160.514L201.218 160.516C201.391 160.616 201.563 160.715 201.732 160.811C209.614 165.829 214.706 174.541 216.52 184.577C217.008 187.156 217.217 189.804 217.217 192.522V192.731V193.149C217.217 204.461 205.117 213.046 198.419 214.314Z" fill="#EEEAFD"/>
<path d="M198.419 214.314L194.402 193.091L176.849 196.414L176.819 214.278L198.419 214.314ZM198.315 277.129L176.715 277.093L176.715 277.111V277.129H198.315ZM155.977 286.119L175.668 277.242L156.511 234.749L136.474 276.834L155.977 286.119ZM117.753 286.119L137.255 276.834L117.019 234.331L97.9952 277.39L117.753 286.119ZM75.3442 277.059H96.9442V277.05L96.9442 277.041L75.3442 277.059ZM75.2923 214.38L96.8924 214.363L96.8777 196.511L79.3427 193.164L75.2923 214.38ZM57.2092 184.716L78.4115 188.842L78.4555 188.616L78.4947 188.389L57.2092 184.716ZM71.9267 160.811L61.2165 142.054L60.6096 142.4L60.0263 142.785L71.9267 160.811ZM72.4437 160.514L83.2274 179.23L83.2816 179.199L83.3358 179.167L72.4437 160.514ZM72.4444 160.514L61.66 141.799L61.6061 141.83L61.5523 141.861L72.4444 160.514ZM74.9958 159.139V137.539H70.2074L65.8675 139.562L74.9958 159.139ZM75.1353 159.139V180.739H79.1844L82.9586 179.272L75.1353 159.139ZM83.7023 159.223L75.7012 179.286L93.1962 186.263L102.49 169.881L83.7023 159.223ZM136.865 128.401L136.909 106.801L136.887 106.801H136.865V128.401ZM189.983 159.212L171.21 169.895L180.49 186.204L197.937 179.295L189.983 159.212ZM198.524 159.139L190.701 179.272L194.475 180.739H198.524V159.139ZM198.663 159.139L207.792 139.562L203.452 137.539H198.663V159.139ZM201.215 160.514L190.43 179.229L190.437 179.233L201.215 160.514ZM201.218 160.516L212.002 141.8L211.995 141.797L201.218 160.516ZM201.732 160.811L213.333 142.591L212.894 142.311L212.442 142.053L201.732 160.811ZM216.52 184.577L195.264 188.418L195.28 188.507L195.297 188.596L216.52 184.577ZM176.819 214.278C176.799 226.856 176.773 242.559 176.752 255.118C176.742 261.398 176.732 266.892 176.726 270.815C176.723 272.777 176.72 274.347 176.718 275.425C176.717 275.965 176.717 276.382 176.716 276.664C176.716 276.805 176.716 276.912 176.716 276.984C176.716 277.02 176.716 277.047 176.715 277.065C176.715 277.074 176.715 277.081 176.715 277.086C176.715 277.088 176.715 277.09 176.715 277.091C176.715 277.092 176.715 277.092 176.715 277.092C176.715 277.093 176.715 277.093 198.315 277.129C219.915 277.165 219.915 277.164 219.915 277.164C219.915 277.164 219.915 277.163 219.915 277.163C219.915 277.162 219.916 277.16 219.916 277.158C219.916 277.153 219.916 277.146 219.916 277.137C219.916 277.119 219.916 277.092 219.916 277.056C219.916 276.984 219.916 276.876 219.916 276.736C219.917 276.454 219.917 276.037 219.918 275.497C219.92 274.418 219.923 272.849 219.926 270.887C219.932 266.963 219.942 261.47 219.952 255.19C219.973 242.631 219.999 226.927 220.019 214.349L176.819 214.278ZM176.715 277.129C176.715 277.23 176.699 277.275 176.687 277.303C176.669 277.345 176.633 277.406 176.57 277.469C176.507 277.532 176.444 277.57 176.397 277.59C176.364 277.604 176.313 277.622 176.204 277.622V320.822C200.324 320.822 219.916 301.271 219.916 277.129H176.715ZM176.204 277.622C176.113 277.622 176.065 277.609 176.04 277.602C176.01 277.593 175.972 277.577 175.926 277.546C175.82 277.476 175.723 277.364 175.668 277.242L136.285 294.997C143.122 310.163 158.373 320.822 176.204 320.822V277.622ZM136.474 276.834C136.483 276.816 136.5 276.785 136.562 276.744C136.6 276.72 136.655 276.692 136.725 276.671C136.799 276.649 136.853 276.646 136.865 276.646V319.846C154.024 319.846 168.649 309.75 175.479 295.405L136.474 276.834ZM136.865 276.646C136.876 276.646 136.931 276.649 137.005 276.671C137.074 276.692 137.129 276.72 137.167 276.744C137.229 276.785 137.247 276.816 137.255 276.834L98.2505 295.405C105.08 309.75 119.706 319.846 136.865 319.846V276.646ZM97.9952 277.39C97.9761 277.434 97.9304 277.497 97.8556 277.546C97.8237 277.567 97.7905 277.583 97.753 277.595C97.7204 277.604 97.651 277.622 97.5251 277.622V320.822C115.358 320.822 130.723 310.212 137.511 294.848L97.9952 277.39ZM97.5251 277.622C97.4368 277.622 97.389 277.608 97.3454 277.589C97.2868 277.564 97.2057 277.515 97.1245 277.434C97.0433 277.353 96.9961 277.274 96.9731 277.22C96.9566 277.181 96.9442 277.14 96.9442 277.059H53.7441C53.7441 301.201 73.4059 320.822 97.5251 320.822V277.622ZM75.3442 277.059C96.9442 277.041 96.9442 277.041 96.9442 277.041C96.9442 277.04 96.9442 277.04 96.9442 277.039C96.9442 277.038 96.9442 277.036 96.9442 277.034C96.9442 277.03 96.9442 277.023 96.9442 277.014C96.9442 276.996 96.9442 276.968 96.9441 276.933C96.9441 276.861 96.944 276.754 96.9439 276.613C96.9436 276.332 96.9433 275.917 96.9429 275.38C96.942 274.304 96.9407 272.74 96.939 270.785C96.9358 266.874 96.9312 261.397 96.926 255.135C96.9157 242.609 96.9027 226.94 96.8924 214.363L53.6923 214.398C53.7026 226.975 53.7156 242.645 53.726 255.17C53.7311 261.433 53.7357 266.91 53.7389 270.821C53.7406 272.776 53.7419 274.34 53.7428 275.415C53.7432 275.953 53.7436 276.368 53.7438 276.649C53.7439 276.79 53.744 276.897 53.7441 276.969C53.7441 277.004 53.7441 277.032 53.7441 277.05C53.7441 277.059 53.7441 277.066 53.7441 277.07C53.7441 277.072 53.7441 277.074 53.7441 277.075C53.7441 277.076 53.7441 277.076 53.7441 277.077C53.7441 277.077 53.7441 277.077 75.3442 277.059ZM79.3427 193.164C79.7134 193.234 79.9806 193.306 80.1383 193.353C80.2992 193.401 80.3905 193.436 80.4133 193.445C80.4483 193.459 80.3256 193.412 80.078 193.274C79.8371 193.139 79.5448 192.954 79.2321 192.723C78.9204 192.493 78.6305 192.249 78.3782 192.005C78.1252 191.761 77.9458 191.554 77.8305 191.404C77.7149 191.253 77.6946 191.2 77.726 191.261C77.7592 191.326 77.8568 191.532 77.9468 191.878C78.0394 192.233 78.1118 192.692 78.1118 193.219H34.9117C34.9117 206.79 42.0693 217.01 48.4003 223.111C54.5396 229.028 62.8706 233.999 71.2419 235.597L79.3427 193.164ZM78.1118 193.219V192.801H34.9117V193.219H78.1118ZM78.1118 192.801V192.592H34.9117V192.801H78.1118ZM78.1118 192.592C78.1118 190.95 78.241 189.719 78.4115 188.842L36.0069 180.59C35.201 184.732 34.9117 188.798 34.9117 192.592H78.1118ZM78.4947 188.389C79.3949 183.173 81.7672 180.197 83.8271 178.838L60.0263 142.785C46.462 151.74 38.5111 166.049 35.9237 181.044L78.4947 188.389ZM82.6369 179.569C82.8505 179.447 83.0604 179.326 83.2274 179.23L61.66 141.799C61.4785 141.903 61.3435 141.981 61.2165 142.054L82.6369 179.569ZM83.3358 179.167L83.3365 179.167L61.5523 141.861L61.5516 141.862L83.3358 179.167ZM83.2289 179.229C83.6729 178.973 83.8983 178.844 84.0921 178.738C84.2714 178.64 84.2604 178.652 84.124 178.715L65.8675 139.562C64.0099 140.428 62.3307 141.412 61.66 141.799L83.2289 179.229ZM74.9958 180.739H75.0655V137.539H74.9958V180.739ZM75.0655 180.739H75.1353V137.539H75.0655V180.739ZM82.9586 179.272C81.7796 179.73 80.5255 179.972 79.2506 179.972V136.772C75.0461 136.772 71.002 137.571 67.312 139.005L82.9586 179.272ZM79.2506 179.972C78.042 179.972 76.8314 179.737 75.7012 179.286L91.7034 139.159C87.8206 137.611 83.6059 136.772 79.2506 136.772V179.972ZM102.49 169.881C109.425 157.655 122.188 150.001 136.865 150.001V106.801C106.548 106.801 79.4792 122.891 64.9148 148.565L102.49 169.881ZM136.82 150.001C151.501 150.032 164.264 157.689 171.21 169.895L208.756 148.529C194.182 122.916 167.161 106.864 136.909 106.801L136.82 150.001ZM194.409 136.772C190.081 136.772 185.892 137.6 182.029 139.13L197.937 179.295C196.812 179.74 195.609 179.972 194.409 179.972V136.772ZM206.347 139.005C202.657 137.571 198.613 136.772 194.409 136.772V179.972C193.134 179.972 191.88 179.73 190.701 179.272L206.347 139.005ZM198.594 137.539H198.524V180.739H198.594V137.539ZM198.663 137.539H198.594V180.739H198.663V137.539ZM211.999 141.799C211.328 141.412 209.649 140.428 207.792 139.562L189.535 178.715C189.399 178.652 189.388 178.64 189.567 178.738C189.761 178.844 189.986 178.973 190.43 179.229L211.999 141.799ZM211.995 141.797L211.992 141.795L190.437 179.233L190.44 179.235L211.995 141.797ZM212.442 142.053C212.316 141.982 212.182 141.904 212.002 141.8L190.433 179.231C190.6 179.327 190.809 179.448 191.023 179.569L212.442 142.053ZM237.775 180.736C235.137 166.133 227.36 151.521 213.333 142.591L190.132 179.032C191.869 180.138 194.276 182.949 195.264 188.418L237.775 180.736ZM238.817 192.522C238.817 188.703 238.524 184.684 237.743 180.559L195.297 188.596C195.492 189.627 195.617 190.906 195.617 192.522H238.817ZM238.817 192.731V192.522H195.617V192.731H238.817ZM238.817 193.149V192.731H195.617V193.149H238.817ZM202.437 235.537C210.825 233.949 219.169 228.972 225.311 223.058C231.648 216.957 238.817 206.732 238.817 193.149H195.617C195.617 192.621 195.69 192.163 195.782 191.807C195.872 191.461 195.97 191.255 196.003 191.191C196.034 191.13 196.014 191.184 195.898 191.335C195.782 191.486 195.602 191.694 195.348 191.938C195.095 192.182 194.805 192.427 194.493 192.657C194.18 192.887 193.888 193.072 193.647 193.206C193.4 193.344 193.279 193.39 193.317 193.375C193.341 193.366 193.434 193.33 193.597 193.282C193.757 193.234 194.027 193.162 194.402 193.091L202.437 235.537Z" fill="white" mask="url(#path-2-outside-1_3425_11821)"/>
</g>
<path d="M182.256 169.727C182.604 163.385 187.831 158.367 194.243 158.367C195.707 158.367 197.101 158.645 198.355 159.133H198.425C198.425 159.133 198.425 159.133 198.495 159.133C199.54 159.621 200.585 160.248 201.561 160.806C209.437 165.824 214.524 174.536 216.336 184.572C216.824 187.15 217.033 189.799 217.033 192.517V192.726C217.033 192.865 217.033 193.005 217.033 193.144C217.033 205.41 202.816 214.47 196.683 214.47C190.062 214.47 192.849 197.465 192.849 190.844C192.849 190.635 192.849 190.496 192.849 190.287C187.413 184.781 182.953 177.393 182.395 171.539C182.395 171.4 182.395 171.26 182.326 171.121C182.326 170.842 182.326 170.563 182.326 170.284C182.256 170.215 182.256 170.006 182.256 169.727Z" fill="#F47171"/>
<path d="M91.1647 169.727C90.8162 163.385 85.5892 158.367 79.1773 158.367C77.7137 158.367 76.3199 158.645 75.0654 159.133H74.9957C74.9957 159.133 74.9957 159.133 74.926 159.133C73.8806 159.621 72.8352 160.248 71.8594 160.806C64.0537 165.963 58.8963 174.605 57.154 184.711C56.6661 187.22 56.457 189.868 56.457 192.587V192.796C56.457 192.935 56.457 193.074 56.457 193.214C56.457 205.48 70.6746 214.54 76.8077 214.54C83.4287 214.54 80.6409 197.535 80.6409 190.914C80.6409 190.705 80.6409 190.565 80.6409 190.356C86.077 184.85 90.5375 177.463 91.095 171.609C91.095 171.469 91.095 171.33 91.1647 171.19C91.1647 170.912 91.1647 170.633 91.1647 170.354C91.1647 170.215 91.1647 170.006 91.1647 169.727Z" fill="#F47171"/>
<path d="M198.288 192.238C198.288 193.283 198.218 277.125 198.218 277.125H198.148C198.148 289.322 188.252 299.218 176.055 299.218C167.065 299.218 159.329 293.852 155.844 286.116C152.429 293.294 145.181 298.243 136.748 298.243C128.315 298.243 121.067 293.294 117.651 286.116C114.236 293.852 106.5 299.218 97.4402 299.218C85.2437 299.218 75.2775 289.252 75.2775 277.056C75.2775 277.056 75.2078 193.213 75.2078 192.168C75.2078 155.021 103.085 128.398 136.748 128.398C170.41 128.468 198.288 155.091 198.288 192.238Z" fill="#F47171"/>
<path d="M198.288 192.238C198.288 193.283 198.218 277.125 198.218 277.125H198.148C198.148 289.322 188.252 299.218 176.055 299.218C167.065 299.218 159.329 293.852 155.844 286.116C152.429 293.294 145.181 298.243 136.748 298.243C128.315 298.243 121.067 293.294 117.651 286.116C114.236 293.852 106.5 299.218 97.4402 299.218C85.2437 299.218 75.2775 289.252 75.2775 277.056C75.2775 277.056 75.2078 193.213 75.2078 192.168C75.2078 155.021 103.085 128.398 136.748 128.398C170.41 128.468 198.288 155.091 198.288 192.238Z" fill="#F47171"/>
<path opacity="0.1" d="M198.214 253.084C198.144 265.281 188.247 275.178 176.051 275.178C170.406 275.178 165.248 273.017 161.345 269.532C158.209 266.675 153.54 266.605 150.264 269.323C146.57 272.32 141.901 274.202 136.813 274.202C131.725 274.202 126.986 272.39 123.362 269.323C120.087 266.605 115.417 266.675 112.281 269.532C108.378 273.017 103.221 275.178 97.5753 275.178C85.3788 275.178 75.4823 265.281 75.4823 253.084L75.2732 262.354V277.059C75.2732 289.256 85.1698 299.152 97.3662 299.152C106.357 299.152 114.093 293.786 117.578 286.05C120.993 293.228 128.241 298.177 136.674 298.177C145.107 298.177 152.425 293.228 155.77 286.05C159.185 293.786 166.991 299.152 175.981 299.152C188.178 299.152 198.074 289.256 198.074 277.059L198.214 253.084Z" fill="#4B194E"/>
<path d="M157.304 192.918C164.425 192.918 170.197 187.145 170.197 180.024C170.197 172.903 164.425 167.131 157.304 167.131C150.183 167.131 144.411 172.903 144.411 180.024C144.411 187.145 150.183 192.918 157.304 192.918Z" fill="white"/>
<path d="M157.303 188.177C161.806 188.177 165.457 184.526 165.457 180.022C165.457 175.519 161.806 171.868 157.303 171.868C152.799 171.868 149.149 175.519 149.149 180.022C149.149 184.526 152.799 188.177 157.303 188.177Z" fill="#491249"/>
<path d="M116.114 192.918C123.235 192.918 129.008 187.145 129.008 180.024C129.008 172.903 123.235 167.131 116.114 167.131C108.993 167.131 103.221 172.903 103.221 180.024C103.221 187.145 108.993 192.918 116.114 192.918Z" fill="white"/>
<path d="M116.113 188.177C120.616 188.177 124.267 184.526 124.267 180.022C124.267 175.519 120.616 171.868 116.113 171.868C111.61 171.868 107.959 175.519 107.959 180.022C107.959 184.526 111.61 188.177 116.113 188.177Z" fill="#491249"/>
<path d="M133.817 172.44C135.815 166.819 130.673 159.859 122.332 156.894C113.99 153.929 105.609 156.082 103.611 161.704C101.613 167.325 106.755 174.285 115.096 177.25C123.437 180.215 131.819 178.062 133.817 172.44Z" fill="#F47171"/>
<path d="M155.822 177.263C164.163 174.299 169.305 167.338 167.307 161.717C165.309 156.096 156.928 153.942 148.586 156.907C140.245 159.872 135.103 166.832 137.101 172.454C139.099 178.075 147.481 180.228 155.822 177.263Z" fill="#F47171"/>
<path d="M136.745 190.355C137.938 190.355 138.906 189.388 138.906 188.195C138.906 187.001 137.938 186.034 136.745 186.034C135.552 186.034 134.584 187.001 134.584 188.195C134.584 189.388 135.552 190.355 136.745 190.355Z" fill="#491249"/>
<path d="M146.5 198.785C145.663 197.74 144.827 196.555 143.154 196.555C139.948 196.555 139.948 200.597 136.743 200.597C133.537 200.597 133.537 196.555 130.331 196.555C128.658 196.555 127.822 197.67 126.985 198.785" stroke="#491249" stroke-width="3.14641" stroke-miterlimit="10" stroke-linecap="round" stroke-linejoin="round"/>
<path opacity="0.1" d="M188.25 163.945C184.835 165.896 182.465 169.52 182.256 173.702C182.256 173.911 182.256 174.12 182.256 174.329C182.256 174.608 182.256 174.887 182.256 175.166C182.256 175.305 182.256 175.444 182.326 175.584C182.883 181.438 187.344 188.826 192.78 194.331" stroke="#4B194E" stroke-width="7.85934" stroke-miterlimit="10" stroke-linecap="round" stroke-linejoin="round"/>
<path opacity="0.1" d="M85.1705 163.945C88.5855 165.896 90.9551 169.52 91.1642 173.702C91.1642 173.911 91.1642 174.12 91.1642 174.329C91.1642 174.608 91.1642 174.887 91.1642 175.166C91.1642 175.305 91.1642 175.444 91.0945 175.584C90.5369 181.438 86.0765 188.826 80.6404 194.331" stroke="#4B194E" stroke-width="7.85934" stroke-miterlimit="10" stroke-linecap="round" stroke-linejoin="round"/>
<path d="M55.878 108.184L45.6525 118.442C43.8324 120.234 44.6198 123.301 47.0312 124.103L64.3639 129.807C65.8206 130.312 67.1821 128.918 66.7956 127.485L61.6267 109.682C60.9172 107.137 57.7327 106.309 55.878 108.184Z" fill="#FF9F99"/>
<path d="M224.069 131.664L212.806 115.944C210.809 113.184 206.612 113.498 205.007 116.446L193.739 137.915C192.801 139.728 194.21 141.868 196.232 141.645L220.891 138.877C224.364 138.469 226.154 134.447 224.069 131.664Z" fill="#FF9F99"/>
<path d="M177.264 115.551L172.162 114.919C170.942 114.751 169.69 115.324 169.043 116.407L166.365 120.867C165.027 123.098 161.754 122.86 160.737 120.447L158.767 115.665C158.323 114.503 157.154 113.703 155.909 113.709L150.735 113.599C148.18 113.567 146.712 110.559 148.31 108.506L151.507 104.401C152.284 103.407 152.367 102.034 151.769 100.957L149.273 96.3868C148.057 94.1239 149.926 91.3984 152.432 91.7794L157.534 92.4116C158.755 92.5798 160.007 92.0066 160.654 90.9239L163.331 86.4631C164.67 84.2327 167.942 84.4707 168.96 86.8837L170.93 91.6654C171.374 92.8275 172.543 93.6279 173.788 93.6219L178.962 93.7313C181.516 93.7637 182.985 96.7717 181.386 98.8242L178.189 102.929C177.412 103.923 177.329 105.297 177.927 106.373L180.404 110.834C181.684 113.142 179.815 115.867 177.264 115.551Z" fill="#F47171"/>
</g>
</g>
<defs>
<clipPath id="clip0_3425_11821">
<rect width="280" height="400" rx="20" fill="white"/>
</clipPath>
<clipPath id="clip1_3425_11821">
<rect width="288.001" height="240" fill="white" transform="translate(-4.99951 80)"/>
</clipPath>
</defs>
</svg>
